<?xml version="1.0" standalone="no"?>
<!DOCTYPE svg PUBLIC "-//W3C//DTD SVG 20010904//EN"
 "http://www.w3.org/TR/2001/REC-SVG-20010904/DTD/svg10.dtd">
<svg version="1.0" xmlns="http://www.w3.org/2000/svg"
 width="832.000000pt" height="832.000000pt" viewBox="0 0 832.000000 832.000000"
 preserveAspectRatio="xMidYMid meet">

<g transform="translate(0.000000,832.000000) scale(0.100000,-0.100000)"
fill="#000000" stroke="none">
<path d="M0 4160 l0 -4160 4160 0 4160 0 0 3689 c0 3487 -1 3690 -18 3694 -14
4 -14 5 -1 6 14 1 16 25 18 208 1 159 -1 208 -11 215 -10 8 -10 11 -1 15 17 6
17 33 1 33 -10 0 -10 2 -1 8 9 6 12 45 12 139 l-1 131 -34 -5 c-27 -4 -38 -1
-49 13 -8 11 -14 24 -15 29 0 6 4 4 8 -2 11 -17 63 -26 81 -14 41 27 -26 53
-121 46 -27 -2 -48 0 -48 4 0 4 -15 8 -32 9 -18 2 -37 7 -43 13 -11 11 53 3
92 -12 14 -5 23 -5 23 1 0 6 10 8 23 6 12 -3 43 -8 70 -11 46 -6 47 -6 46 22
0 15 -3 22 -6 16 -2 -7 -8 -13 -13 -13 -11 0 -6 30 6 38 13 10 17 35 4 27 -5
-3 -10 -1 -10 4 0 16 -123 14 -139 -1 -11 -10 -13 -10 -7 0 5 9 -11 12 -68 12
-50 0 -76 -4 -79 -12 -4 -10 -6 -10 -6 -1 -1 10 -825 13 -4001 13 l-4000 0 0
-4160z m8280 4140 c0 -5 -4 -10 -10 -10 -5 0 -10 5 -10 10 0 6 5 10 10 10 6 0
10 -4 10 -10z m-231 -19 c9 -6 10 -11 2 -15 -13 -8 -31 1 -31 15 0 11 11 11
29 0z m91 -5 c0 -11 -19 -15 -25 -6 -3 5 1 10 9 10 9 0 16 -2 16 -4z m40 -6
c8 -5 12 -12 9 -15 -8 -8 -39 5 -39 16 0 11 11 11 30 -1z m95 -28 c-7 -8 -45
10 -40 19 4 5 14 3 25 -3 11 -7 17 -14 15 -16z m-257 6 c18 -18 14 -28 -10
-28 -19 0 -20 2 -8 10 12 8 9 10 -12 10 -16 0 -28 -4 -28 -9 0 -5 -16 -9 -35
-9 -42 0 -47 15 -5 16 16 0 37 5 47 11 24 14 36 14 51 -1z m-193 -16 c-3 -3
-11 0 -18 7 -9 10 -8 11 6 5 10 -3 15 -9 12 -12z m48 1 c-7 -2 -19 -2 -25 0
-7 3 -2 5 12 5 14 0 19 -2 13 -5z m187 -23 c0 -5 -4 -10 -10 -10 -5 0 -10 5
-10 10 0 6 5 10 10 10 6 0 10 -4 10 -10z m55 -20 c17 -7 14 -9 -13 -9 -20 -1
-31 3 -27 9 7 12 13 12 40 0z m85 -44 c-13 -13 -13 -46 -1 -46 5 0 11 8 14 18
2 9 7 -9 11 -40 5 -31 6 -63 3 -70 -3 -7 -6 2 -6 20 -1 17 -5 32 -11 32 -5 0
-10 5 -10 11 0 5 5 7 12 3 7 -4 8 -3 4 5 -12 19 -26 2 -26 -30 0 -18 4 -28 10
-24 12 8 2 -71 -12 -95 -5 -9 -7 34 -5 113 1 70 -1 127 -5 127 -4 0 -8 5 -8
12 0 6 9 3 20 -7 14 -13 17 -22 10 -29z m95 34 c4 -7 -3 -8 -22 -4 -38 9 -42
14 -10 14 14 0 29 -5 32 -10z m-25 -80 c0 -5 -4 -10 -10 -10 -5 0 -10 5 -10
10 0 6 5 10 10 10 6 0 10 -4 10 -10z m37 -22 c-3 -7 -5 -2 -5 12 0 14 2 19 5
13 2 -7 2 -19 0 -25z m-37 -13 c-7 -8 -9 -23 -6 -32 6 -15 8 -15 16 -3 11 17
13 9 4 -14 -5 -13 -9 -14 -20 -5 -15 12 -19 51 -7 62 13 14 25 7 13 -8z m-40
-79 c0 -3 -4 -8 -10 -11 -5 -3 -10 -1 -10 4 0 6 5 11 10 11 6 0 10 -2 10 -4z
m70 -23 c-1 -24 -2 -26 -11 -10 -5 9 -7 22 -4 27 10 17 15 11 15 -17z m-73
-25 c-2 -12 -8 -23 -14 -25 -6 -2 -8 7 -6 22 6 31 24 34 20 3z m43 -10 c0 -5
-4 -8 -10 -8 -5 0 -10 10 -10 23 0 18 2 19 10 7 5 -8 10 -18 10 -22z m-53 -63
c-13 -27 -22 -31 -32 -14 -8 12 24 51 35 44 5 -3 3 -16 -3 -30z m43 -5 c0 -5
-7 -10 -15 -10 -8 0 -15 5 -15 10 0 6 7 10 15 10 8 0 15 -4 15 -10z m-135 -10
c3 -5 1 -10 -4 -10 -6 0 -11 5 -11 10 0 6 2 10 4 10 3 0 8 -4 11 -10z m40 0
c3 -5 1 -10 -4 -10 -6 0 -11 5 -11 10 0 6 2 10 4 10 3 0 8 -4 11 -10z m115
-41 c0 -14 -46 -11 -58 4 -9 10 -4 12 23 9 19 -2 35 -8 35 -13z m-143 -5 c-3
-3 -12 -4 -19 -1 -8 3 -5 6 6 6 11 1 17 -2 13 -5z m-57 -14 c0 -5 -4 -10 -10
-10 -5 0 -10 5 -10 10 0 6 5 10 10 10 6 0 10 -4 10 -10z m230 -11 c0 -6 -34
-9 -84 -8 -46 1 -89 -1 -95 -5 -6 -4 -19 -2 -28 4 -16 10 -15 10 4 5 12 -3 24
-2 27 3 3 6 37 10 76 9 39 0 73 3 77 6 8 8 23 -1 23 -14z m-593 -5 c-3 -3 -12
-4 -19 -1 -8 3 -5 6 6 6 11 1 17 -2 13 -5z m213 -2 c-9 -3 -8 -7 1 -14 9 -5 3
-6 -16 -2 -51 11 -56 19 -14 19 22 0 35 -1 29 -3z m75 -332 c3 -6 -1 -7 -9 -4
-18 7 -21 14 -7 14 6 0 13 -4 16 -10z m78 3 c-7 -2 -19 -2 -25 0 -7 3 -2 5 12
5 14 0 19 -2 13 -5z m72 -3 c3 -6 -1 -7 -9 -4 -18 7 -21 14 -7 14 6 0 13 -4
16 -10z m75 0 c0 -5 -2 -10 -4 -10 -3 0 -8 5 -11 10 -3 6 -1 10 4 10 6 0 11
-4 11 -10z m70 0 c0 -5 -4 -10 -10 -10 -5 0 -10 5 -10 10 0 6 5 10 10 10 6 0
10 -4 10 -10z m-282 -39 c9 -5 3 -8 -17 -7 -17 1 -31 4 -31 9 0 10 32 9 48 -2z
m165 -7 c-3 -8 1 -14 8 -14 7 0 10 -3 6 -6 -3 -4 -17 3 -31 14 l-26 20 24 0
c17 0 23 -5 19 -14z m94 10 c-3 -3 -12 -4 -19 -1 -8 3 -5 6 6 6 11 1 17 -2 13
-5z m-447 -14 c0 -5 -4 -10 -9 -10 -6 0 -13 5 -16 10 -3 6 1 10 9 10 9 0 16
-4 16 -10z m125 0 c-3 -5 -18 -10 -33 -9 l-27 1 25 8 c35 11 42 11 35 0z m320
-21 c-3 -4 -16 -2 -29 4 -13 7 -22 15 -20 19 3 4 16 2 29 -4 13 -6 22 -14 20
-19z m-135 -17 c3 -3 -8 -2 -25 2 -16 4 -34 12 -40 17 -5 5 6 4 25 -2 19 -7
37 -14 40 -17z m-153 2 c-3 -3 -12 -4 -19 -1 -8 3 -5 6 6 6 11 1 17 -2 13 -5z
m233 -4 c8 -5 11 -10 5 -10 -5 0 -17 5 -25 10 -8 5 -10 10 -5 10 6 0 17 -5 25
-10z m-55 -310 c8 -13 -5 -13 -25 0 -13 8 -13 10 2 10 9 0 20 -4 23 -10z
m-830 -18 c-3 -3 -11 0 -18 7 -9 10 -8 11 6 5 10 -3 15 -9 12 -12z m360 -32
c3 -5 1 -10 -4 -10 -6 0 -11 5 -11 10 0 6 2 10 4 10 3 0 8 -4 11 -10z m-95
-10 c0 -5 -5 -10 -11 -10 -5 0 -7 5 -4 10 3 6 8 10 11 10 2 0 4 -4 4 -10z
m695 0 c3 -5 2 -10 -4 -10 -5 0 -13 5 -16 10 -3 6 -2 10 4 10 5 0 13 -4 16
-10z m-4342 -36 c3 -3 90 -6 194 -6 205 0 341 -10 473 -34 128 -23 345 -79
440 -114 97 -36 338 -146 420 -192 30 -17 80 -45 110 -61 80 -43 223 -140 250
-169 8 -9 40 -33 70 -54 160 -109 379 -307 456 -411 15 -21 51 -65 79 -98 70
-82 149 -191 220 -304 32 -51 69 -106 82 -122 29 -34 137 -250 199 -397 26
-60 61 -171 80 -252 19 -80 37 -154 39 -165 3 -11 13 -72 22 -135 24 -153 23
-569 -1 -785 -22 -190 -114 -585 -137 -585 -5 0 -9 -9 -9 -19 0 -11 -22 -70
-49 -133 -122 -286 -271 -529 -444 -726 -228 -260 -373 -383 -705 -595 -160
-103 -249 -150 -268 -143 -8 3 -11 0 -8 -8 5 -12 -5 -17 -208 -107 -189 -83
-410 -148 -641 -188 -183 -32 -465 -54 -595 -47 -411 23 -815 125 -1129 285
-122 62 -139 74 -98 66 27 -5 28 -5 7 5 -13 5 -28 8 -33 5 -11 -7 -67 22 -209
108 -199 120 -414 282 -406 304 3 8 -2 13 -13 13 -11 0 -57 35 -104 78 -200
183 -371 410 -519 687 -170 319 -214 423 -279 648 -33 114 -40 150 -30 156 10
6 9 9 -2 14 -19 7 -53 191 -68 372 -13 161 -6 436 16 595 18 134 68 371 101
479 l25 83 45 -5 c24 -2 41 -1 38 4 -3 5 -21 9 -40 9 -19 0 -34 4 -34 8 0 35
114 297 148 341 l21 26 0 -177 c1 -98 2 -181 4 -185 1 -5 -15 -9 -37 -10 -44
-3 -62 -13 -25 -14 13 0 32 -2 41 -4 10 -2 20 1 24 6 3 5 9 7 14 4 4 -2 -9
-58 -30 -122 -77 -242 -130 -584 -130 -843 0 -236 62 -612 142 -860 22 -66
154 -333 229 -462 49 -83 163 -249 227 -328 60 -75 324 -344 411 -419 67 -57
338 -244 443 -304 144 -83 352 -173 508 -220 130 -38 401 -95 540 -112 160
-20 476 -19 630 1 139 18 214 33 430 85 106 26 184 39 217 38 29 -2 56 0 60 4
3 4 -18 7 -48 8 -30 0 -47 3 -39 6 120 42 414 177 535 247 298 172 663 527
829 806 22 36 64 103 95 150 71 109 191 350 230 460 36 103 95 297 110 363 26
109 50 301 40 308 -8 5 -8 8 0 13 22 14 7 378 -25 615 -17 125 -68 334 -110
452 -140 390 -556 961 -890 1222 -30 23 -54 47 -54 54 0 7 -4 13 -9 13 -5 0
-76 44 -158 99 -280 187 -505 289 -818 371 -187 49 -273 66 -447 85 -426 47
-771 11 -1196 -126 -342 -110 -510 -192 -782 -382 -84 -59 -162 -128 -288
-254 -95 -95 -178 -173 -183 -173 -6 0 -9 -6 -6 -12 2 -7 -12 -33 -33 -58 -65
-80 -157 -213 -219 -317 -70 -119 -171 -313 -171 -331 0 -16 -17 -15 -27 1 -4
6 -9 76 -9 154 -1 78 -5 147 -10 154 -5 9 -2 10 10 6 14 -6 16 -3 11 13 -12
38 168 315 361 556 66 82 235 248 319 313 115 89 148 113 215 158 77 51 261
154 405 226 93 47 347 142 508 191 161 49 301 74 471 86 82 6 152 12 154 15 7
7 17 6 25 -1z m3192 -382 c-3 -3 -11 0 -18 7 -9 10 -8 11 6 5 10 -3 15 -9 12
-12z m590 -12 c3 -6 -1 -7 -9 -4 -18 7 -21 14 -7 14 6 0 13 -4 16 -10z m237
-9 c-11 -11 -17 -12 -19 -4 -3 8 -17 10 -36 8 -27 -4 -28 -4 -7 3 14 5 37 8
52 8 24 1 25 -1 10 -15z m-105 3 c-3 -3 -12 -4 -19 -1 -8 3 -5 6 6 6 11 1 17
-2 13 -5z m353 2 c0 -3 -4 -8 -10 -11 -5 -3 -10 -1 -10 4 0 6 5 11 10 11 6 0
10 -2 10 -4z m70 -6 c0 -5 -4 -10 -10 -10 -5 0 -10 5 -10 10 0 6 5 10 10 10 6
0 10 -4 10 -10z m-5047 -848 c57 -38 116 -139 146 -254 26 -97 41 -426 20
-439 -10 -6 -11 -9 -1 -9 30 0 5 -409 -35 -550 -40 -144 -140 -290 -197 -290
-40 0 -91 54 -139 148 -51 98 -101 252 -94 288 2 13 0 25 -4 26 -11 4 -27 116
-37 248 -8 123 -6 140 16 140 15 1 15 2 -2 11 -17 10 -18 20 -11 103 19 244
129 510 239 577 39 24 63 24 99 1z m1964 -11 c49 -36 92 -100 134 -199 105
-253 104 -671 -2 -1002 -43 -133 -84 -212 -137 -265 -52 -50 -54 -51 -72 -30
-11 13 -8 15 14 15 14 0 26 5 26 10 0 10 -27 15 -64 11 -36 -3 -63 28 -115
131 -80 161 -109 293 -117 538 -12 376 54 651 187 775 58 54 89 58 146 16z
m-3697 -635 c0 -3 -4 -8 -10 -11 -5 -3 -10 -1 -10 4 0 6 5 11 10 11 6 0 10 -2
10 -4z m810 -1294 c94 -47 75 -161 -37 -224 -30 -17 -57 -38 -61 -46 -13 -35
161 -323 302 -498 89 -111 330 -341 434 -415 212 -151 431 -257 657 -318 33
-10 294 -51 318 -51 4 0 7 -9 7 -20 0 -11 5 -20 11 -20 5 0 8 4 5 9 -10 15 18
19 74 10 61 -10 273 -3 390 12 113 15 348 74 458 115 236 87 462 233 642 414
279 279 493 553 531 680 11 35 10 36 -55 101 -54 54 -66 72 -66 98 0 186 281
127 426 -90 51 -77 63 -127 44 -183 -22 -68 -79 -84 -142 -41 -66 45 -67 43
-165 -145 -104 -201 -266 -433 -382 -550 -203 -204 -464 -398 -676 -501 -472
-229 -1050 -272 -1520 -113 -315 106 -605 292 -864 554 -144 146 -208 225
-320 394 -50 76 -69 111 -60 117 8 5 7 8 -6 10 -11 3 -49 65 -104 169 -47 91
-91 165 -98 165 -6 0 -26 -13 -44 -29 -39 -35 -107 -46 -142 -23 -38 25 -52
70 -38 120 29 97 151 231 262 286 74 37 161 42 219 13z"/>
<path d="M1477 3023 c-4 -3 -6 -40 -5 -82 l1 -76 7 80 c7 85 7 89 -3 78z"/>
<path d="M1482 2810 c0 -14 2 -19 5 -12 2 6 2 18 0 25 -3 6 -5 1 -5 -13z"/>
<path d="M2953 5003 c9 -2 25 -2 35 0 9 3 1 5 -18 5 -19 0 -27 -2 -17 -5z"/>
<path d="M3118 5003 c77 -3 111 -7 106 -14 -4 -8 0 -8 14 0 11 6 34 8 51 5 20
-4 31 -2 31 5 0 8 -46 10 -157 9 -140 -2 -145 -3 -45 -5z"/>
<path d="M3339 4997 c6 -8 21 -13 32 -10 25 7 20 12 -16 19 -24 4 -26 3 -16
-9z"/>
<path d="M3332 4740 c0 -14 2 -19 5 -12 2 6 2 18 0 25 -3 6 -5 1 -5 -13z"/>
<path d="M3330 4683 c0 -17 5 -35 10 -38 13 -8 13 35 0 55 -7 11 -10 7 -10
-17z"/>
<path d="M3098 4603 c7 -3 16 -2 19 1 4 3 -2 6 -13 5 -11 0 -14 -3 -6 -6z"/>
<path d="M3155 4600 c3 -5 8 -10 11 -10 2 0 4 5 4 10 0 6 -5 10 -11 10 -5 0
-7 -4 -4 -10z"/>
<path d="M3308 4593 c7 -3 16 -2 19 1 4 3 -2 6 -13 5 -11 0 -14 -3 -6 -6z"/>
<path d="M5115 5010 c3 -5 21 -10 38 -9 31 1 31 1 7 9 -36 11 -52 11 -45 0z"/>
<path d="M3951 1974 c0 -11 3 -14 6 -6 3 7 2 16 -1 19 -3 4 -6 -2 -5 -13z"/>
</g>
</svg>
